<svg width="120" height="120" viewBox="0 0 120 120" xmlns="http://www.w3.org/2000/svg">
<!-- Transparent background -->
<rect width="120" height="120" fill="none"/>
 
  <!-- Detailed Asteroids -->
<g>
<circle cx="30" cy="30" r="10" fill="#A9A9A9"/>
<circle cx="28" cy="28" r="2" fill="#696969"/>
<circle cx="32" cy="32" r="1.5" fill="#808080"/>
</g>
<g>
<circle cx="70" cy="50" r="15" fill="#808080"/>
<circle cx="68" cy="48" r="3" fill="#696969"/>
<circle cx="72" cy="52" r="2.5" fill="#A9A9A9"/>
</g>
<g>
<circle cx="90" cy="80" r="8" fill="#696969"/>
<circle cx="88" cy="78" r="1.5" fill="#808080"/>
<circle cx="92" cy="82" r="1" fill="#A9A9A9"/>
</g>
<g>
<circle cx="50" cy="90" r="12" fill="#A9A9A9"/>
<circle cx="48" cy="88" r="2.5" fill="#696969"/>
<circle cx="52" cy="92" r="2" fill="#808080"/>
</g>
<g>
<circle cx="20" cy="70" r="7" fill="#808080"/>
<circle cx="18" cy="68" r="1.5" fill="#A9A9A9"/>
<circle cx="22" cy="72" r="1" fill="#696969"/>
</g>
 
  <!-- Star-like features -->
<circle cx="20" cy="20" r="2" fill="#FFFFFF" opacity="0.8"/>
<circle cx="100" cy="30" r="1.5" fill="#FFFFFF" opacity="0.8"/>
<circle cx="90" cy="90" r="2.5" fill="#FFFFFF" opacity="0.8"/>
<circle cx="10" cy="70" r="1.2" fill="#FFFFFF" opacity="0.8"/>
<circle cx="60" cy="10" r="1.8" fill="#FFFFFF" opacity="0.8"/>
<circle cx="70" cy="110" r="2" fill="#FFFFFF" opacity="0.8"/>
</svg>
 