<?xml version="1.0" encoding="iso-8859-1"?>
<svg height="200px" width="200px" version="1.1" id="Layer_1" xmlns="http://www.w3.org/2000/svg" xmlns:xlink="http://www.w3.org/1999/xlink" 
	 viewBox="0 0 511.999 511.999" xml:space="preserve">
<path style="fill:grey; stroke:white; stroke-width:2;" d="M496.129,209.771c-4.238-20.552-4.892-41.59-2.602-62.45c0.195-1.775,0.295-3.586,0.295-5.424
	c0-11.581-3.984-22.057-10.416-29.617c-11.896-13.979-22.412-29.019-31.534-44.948c-13.746-24.007-40.23-40.265-70.654-40.265
	c-2.286,0-4.55,0.092-6.787,0.274c-18.686,1.514-37.438-1.032-55.417-6.344c-21.71-6.415-44.298-9.849-67.129-9.849
	c-129.451,0-242.278,114.705-240.74,247.726c0.131,11.352,1.035,22.518,2.661,33.448c3.682,24.75,2.806,49.928-1.594,74.561
	c-2.91,16.288,0.833,35.298,11.709,52.214c6.862,10.671,15.66,19.1,25.244,24.901c11.575,7.007,21.965,15.757,30.606,26.169
	c11.998,14.457,31.079,31.818,51.326,30.529c3.931-0.25,7.757-0.787,11.446-1.581c24.369-5.246,49.563-5.367,74.171-1.397
	c11.714,1.89,23.705,2.95,35.913,3.114c134.601,1.819,246.108-106.334,248.211-240.931
	C501.11,242.704,499.465,225.943,496.129,209.771z"/>
<g>
	<ellipse style="fill:black; stroke:white; stroke-width:2;" cx="91.827" cy="306.458" rx="36.174" ry="50.477"/>
	<ellipse style="fill:black; stroke:white; stroke-width:2;" cx="136.716" cy="406.621" rx="30.242" ry="21.148"/>
	<ellipse style="fill:black; stroke:white; stroke-width:2;" cx="422.959" cy="255.981" rx="33.392" ry="44.522"/>
</g>
</svg>
