<svg width="120" height="120" viewBox="0 0 120 120" xmlns="http://www.w3.org/2000/svg">
  <!-- Blue ocean -->
  <circle cx="60" cy="60" r="60" fill="#1E90FF"/>
  
  <!-- Enlarged green continents -->
  <path d="M35 20 Q55 25 60 40 Q50 55 30 50 Q20 35 35 20 Z" fill="#2E8B57"/> <!-- North America -->
  <path d="M65 50 Q85 55 80 70 Q65 85 50 70 Q55 60 65 50 Z" fill="#2E8B57"/> <!-- South America -->
  <path d="M80 25 Q90 35 85 50 Q70 45 65 35 Q70 20 80 25 Z" fill="#2E8B57"/> <!-- Africa -->
  <path d="M30 75 Q50 80 45 100 Q30 110 15 95 Q10 80 30 75 Z" fill="#2E8B57"/> <!-- Australia -->
  <path d="M85 45 Q100 50 95 65 Q85 75 75 60 Q80 50 85 45 Z" fill="#2E8B57"/> <!-- Asia -->

  <!-- Star-like features -->
  <circle cx="20" cy="20" r="2" fill="#FFFFFF" opacity="0.8"/>
  <circle cx="100" cy="30" r="1.5" fill="#FFFFFF" opacity="0.8"/>
  <circle cx="90" cy="90" r="2.5" fill="#FFFFFF" opacity="0.8"/>
  <circle cx="10" cy="70" r="1.2" fill="#FFFFFF" opacity="0.8"/>
  <circle cx="60" cy="10" r="1.8" fill="#FFFFFF" opacity="0.8"/>
  <circle cx="70" cy="110" r="2" fill="#FFFFFF" opacity="0.8"/>
</svg>
