<svg width="120" height="120" viewBox="0 0 120 120" xmlns="http://www.w3.org/2000/svg">
  <!-- Red planet base -->
  <circle cx="60" cy="60" r="60" fill="#FF4500"/>

  <!-- Darker red land features -->
  <path d="M40 30 Q50 40 45 50 Q35 55 25 45 Q30 35 40 30 Z" fill="#C1440E"/> <!-- Crater 1 -->
  <path d="M75 45 Q85 55 75 65 Q65 60 70 50 Z" fill="#C1440E"/> <!-- Crater 2 -->
  <path d="M50 80 Q60 90 55 100 Q45 95 40 85 Q45 75 50 80 Z" fill="#C1440E"/> <!-- Crater 3 -->

  <!-- Surface streaks -->
  <path d="M20 60 Q40 50 70 55 Q90 60 110 50 Q90 70 70 70 Q40 65 20 60 Z" fill="#CD5C5C" opacity="0.6"/>
  <path d="M30 85 Q50 80 90 85 Q70 95 30 85 Z" fill="#CD5C5C" opacity="0.5"/>

  <!-- Small craters -->
  <circle cx="80" cy="20" r="5" fill="#C1440E" />
  <circle cx="20" cy="85" r="3" fill="#C1440E" />
  <circle cx="95" cy="90" r="4" fill="#C1440E" />
</svg>